<svg xmlns="http://www.w3.org/2000/svg" width="1200" height="630" viewBox="0 0 1200 630">
  <!-- Background -->
  <rect width="1200" height="630" fill="#0A0A0A"/>

  <!-- Grid pattern -->
  <defs>
    <pattern id="grid" width="60" height="60" patternUnits="userSpaceOnUse">
      <path d="M 60 0 L 0 0 0 60" fill="none" stroke="#76b900" stroke-width="0.4" opacity="0.12"/>
    </pattern>
    <radialGradient id="glow" cx="80%" cy="20%" r="60%">
      <stop offset="0%" stop-color="#76b900" stop-opacity="0.15"/>
      <stop offset="100%" stop-color="#76b900" stop-opacity="0"/>
    </radialGradient>
  </defs>
  <rect width="1200" height="630" fill="url(#grid)"/>
  <rect width="1200" height="630" fill="url(#glow)"/>

  <!-- Left accent bar -->
  <rect x="0" y="0" width="6" height="630" fill="#76b900"/>

  <!-- Category badge -->
  <rect x="80" y="80" width="164" height="36" fill="#76b900" rx="2"/>
  <text x="96" y="103" font-family="Arial, sans-serif" font-weight="700" font-size="14" fill="#000000" letter-spacing="2">ARCHITECTURE</text>

  <!-- Title -->
  <text x="80" y="244" font-family="Arial, sans-serif" font-weight="900" font-size="58" fill="#FFFFFF" letter-spacing="-1">You Dont Need a Data Scientist</text>
    <text x="80" y="316" font-family="Arial, sans-serif" font-weight="900" font-size="58" fill="#FFFFFF" letter-spacing="-1">To Start Using AI</text>

  <!-- Bottom bar -->
  <rect x="0" y="540" width="1200" height="90" fill="#111111" opacity="0.9"/>
  <rect x="0" y="540" width="1200" height="1" fill="#222222"/>

  <!-- DRS logo mark (clipped corner polygon) -->
  <polygon points="80,562 104,562 104,594 96,602 80,602" fill="#76b900"/>
  <text x="114" y="581" font-family="Arial, sans-serif" font-weight="700" font-size="13" fill="#FFFFFF" letter-spacing="3">DRS</text>
  <text x="114" y="597" font-family="Arial, sans-serif" font-weight="400" font-size="12" fill="#888888">Derivative Research Systems</text>

  <!-- Date -->
  <text x="1120" y="587" font-family="Arial, sans-serif" font-size="13" fill="#666666" text-anchor="end">June 29, 2026</text>

  <!-- Divider -->
  <rect x="80" y="530" width="120" height="3" fill="#76b900"/>
</svg>